<svg width="102" height="102" viewBox="0 0 102 102" fill="none" xmlns="http://www.w3.org/2000/svg">
<g clip-path="url(#clip0_9_45)">
<path d="M45.2329 53.3641L45.2329 72.0433C45.2211 72.2454 45.1356 72.4361 44.9925 72.5793C44.8493 72.7224 44.6586 72.808 44.4565 72.8197C41.8313 72.8488 39.3228 73.9085 37.4719 75.7704C35.621 77.6322 34.576 80.1469 34.5623 82.7722C34.5703 82.9194 34.5246 83.0646 34.4339 83.1808C34.3666 83.2935 34.2707 83.3864 34.1559 83.4499C34.041 83.5135 33.9114 83.5455 33.7802 83.5427C33.6782 83.5428 33.5772 83.5227 33.483 83.4837C33.3888 83.4447 33.3032 83.3875 33.2311 83.3154C33.159 83.2433 33.1018 83.1577 33.0628 83.0635C33.0238 82.9693 33.0038 82.8683 33.0038 82.7664L33.0388 64.1922C33.0555 61.1512 34.2566 58.2363 36.3873 56.0664C38.518 53.8965 41.4104 52.6424 44.4507 52.5702C44.6527 52.5819 44.8435 52.6675 44.9866 52.8106C45.1297 52.9538 45.2153 53.1445 45.227 53.3466L45.2329 53.3641Z" fill="#A5B5B6"/>
<path d="M45.233 53.8428L45.2388 72.0492C45.2271 72.2513 45.1415 72.442 44.9984 72.5852C44.8553 72.7283 44.6645 72.8139 44.4624 72.8256C41.8373 72.8547 39.3288 73.9144 37.4778 75.7763C35.6269 77.6381 34.582 80.1528 34.5683 82.7781C34.5762 82.9253 34.5306 83.0705 34.4399 83.1867L34.4574 65.4239C34.4717 62.4933 35.5879 59.6753 37.5843 57.5297C39.5806 55.3842 42.311 54.068 45.233 53.8428Z" fill="#95A5A6"/>
<path d="M56.7673 54.228L56.7673 72.9073C56.7802 73.1074 56.8656 73.2959 57.0074 73.4377C57.1492 73.5795 57.3377 73.6648 57.5378 73.6778C60.1616 73.7111 62.6677 74.7722 64.5177 76.6331C66.3677 78.4941 67.4141 81.0063 67.432 83.6303C67.4241 83.7775 67.4697 83.9227 67.5604 84.0389C67.6267 84.1499 67.7208 84.2416 67.8334 84.3051C67.946 84.3686 68.0732 84.4016 68.2025 84.4008C68.3045 84.4009 68.4054 84.3808 68.4996 84.3418C68.5939 84.3028 68.6795 84.2456 68.7516 84.1735C68.8237 84.1014 68.8809 84.0158 68.9198 83.9216C68.9588 83.8274 68.9789 83.7264 68.9788 83.6245L68.9555 65.0853C68.9388 62.0443 67.7377 59.1294 65.607 56.9595C63.4764 54.7896 60.5839 53.5355 57.5437 53.4634C57.4414 53.4622 57.3399 53.4815 57.2452 53.5201C57.1505 53.5587 57.0644 53.6159 56.9921 53.6882C56.9198 53.7605 56.8627 53.8465 56.824 53.9413C56.7854 54.036 56.7662 54.1374 56.7673 54.2397L56.7673 54.228Z" fill="#A5B5B6"/>
<path d="M56.7615 54.7008L56.7615 72.913C56.7744 73.1131 56.8598 73.3017 57.0015 73.4435C57.1433 73.5853 57.3319 73.6706 57.532 73.6836C60.1558 73.7169 62.6619 74.778 64.5119 76.6389C66.3619 78.4998 67.4082 81.0121 67.4261 83.6361C67.4182 83.7833 67.4638 83.9284 67.5546 84.0447L67.5721 66.3169C67.5639 63.3752 66.4461 60.5449 64.442 58.3914C62.4379 56.238 59.695 54.92 56.7615 54.7008Z" fill="#95A5A6"/>
<path d="M50.3136 2.85884L50.3237 14.416L51.6776 14.4148L51.6675 2.85766L50.3136 2.85884Z" fill="#F7B23F"/>
<path d="M52.4479 2.05463C52.4473 2.3401 52.3621 2.61899 52.2032 2.85611C52.0442 3.09322 51.8186 3.27792 51.5547 3.38689C51.2908 3.49586 51.0006 3.52422 50.7207 3.46838C50.4407 3.41254 50.1836 3.27501 49.9817 3.07316C49.7799 2.8713 49.6423 2.61417 49.5865 2.33421C49.5307 2.05426 49.559 1.76403 49.668 1.50018C49.777 1.23633 49.9617 1.01067 50.1988 0.851706C50.4359 0.692739 50.7148 0.607587 51.0002 0.606995C51.1905 0.606601 51.3789 0.643776 51.5547 0.716387C51.7305 0.788998 51.8903 0.895612 52.0248 1.03012C52.1593 1.16462 52.2659 1.32437 52.3385 1.50018C52.4111 1.67599 52.4483 1.86442 52.4479 2.05463Z" fill="#C52E25"/>
<path d="M51.0001 102C52.6705 98.6415 53.568 94.9517 53.6269 91.2012L53.6269 84.9787L48.3617 84.9787L48.3733 91.2012C48.4278 94.9523 49.3255 98.6431 51.0001 102V102Z" fill="#F19B2C"/>
<path d="M50.93 97.6221C52.0778 95.3232 52.6943 92.7956 52.7337 90.2263L52.7337 85.9651L49.1088 85.9476L49.1263 90.2263C49.1657 92.7956 49.7822 95.3232 50.93 97.6221Z" fill="#C52E25"/>
<path d="M46.6221 96.3497C47.7399 94.1084 48.3404 91.6449 48.3791 89.1407L48.3791 84.9845L44.8768 84.9845L44.8651 89.1407C44.9039 91.6449 45.5043 94.1084 46.6221 96.3497Z" fill="#F3AA43"/>
<path d="M46.5814 93.4252C47.339 91.8798 47.7418 90.1846 47.7605 88.4636L47.7605 85.615L45.373 85.6442L45.3906 88.4986C45.4122 90.2094 45.8192 91.8934 46.5814 93.4252Z" fill="#E54D42"/>
<path d="M55.3372 96.3438C56.4521 94.1039 57.0505 91.6424 57.0884 89.1406L57.0825 84.9787L53.5802 84.9787L53.5802 89.1348C53.6162 91.6394 54.2167 94.1035 55.3372 96.3438Z" fill="#F3AA43"/>
<path d="M55.2789 93.4368C56.0412 91.9003 56.4519 90.2134 56.4813 88.4985L56.4813 85.6499L54.0881 85.6383L54.0881 88.4868C54.1062 90.2056 54.5133 91.8979 55.2789 93.4368Z" fill="#E54D42"/>
<path d="M57.8822 84.3658C57.8693 84.7859 57.6966 85.1852 57.3995 85.4824C57.1023 85.7796 56.7029 85.9523 56.2828 85.9652L45.7758 85.9652C45.3518 85.9647 44.9453 85.796 44.6454 85.4961C44.3456 85.1963 44.1769 84.7898 44.1764 84.3658L45.4781 78.3943C45.4896 77.9722 45.6625 77.5706 45.961 77.272C46.2596 76.9734 46.6612 76.8006 47.0833 76.789L54.9753 76.789C55.1865 76.7874 55.396 76.8279 55.5915 76.908C55.787 76.9881 55.9646 77.1063 56.1139 77.2556C56.2633 77.405 56.3815 77.5826 56.4616 77.7781C56.5417 77.9736 56.5821 78.183 56.5805 78.3943L57.8822 84.3658Z" fill="#758586"/>
<path d="M48.385 77.0849V85.9674H53.5114V77.0849H48.385Z" fill="#859596"/>
<path d="M59.7852 75.1312C59.7829 75.7281 59.5448 76.2999 59.1227 76.7219C58.7007 77.144 58.1289 77.3821 57.532 77.3844L44.4682 77.3844C43.8714 77.3821 43.2996 77.144 42.8775 76.7219C42.4555 76.2999 42.2174 75.7281 42.2151 75.1312L42.2151 74.6059C42.2174 74.009 42.4555 73.4372 42.8775 73.0152C43.2996 72.5931 43.8714 72.355 44.4682 72.3527L57.5379 72.3468C58.1354 72.347 58.7084 72.5844 59.131 73.0069C59.5535 73.4294 59.7909 74.0025 59.791 74.6L59.7852 75.1312Z" fill="#068DB3"/>
<path d="M47.7837 32.5893L47.7954 32.1457L47.8071 31.095L47.8246 30.6689C47.8518 30.2136 47.881 29.7524 47.9121 29.2854L47.9238 28.9235L47.9997 27.8903L48.0347 27.4117L48.1164 26.396L48.1456 26.0749L48.2974 24.7557L48.3149 24.6098C48.4959 22.8645 48.7294 21.23 48.9687 19.7298L48.9979 19.5255C47.9431 19.361 46.916 19.0526 45.945 18.6091C45.5831 19.4146 45.1803 20.3311 44.8126 21.2592C43.1634 25.3364 42.2904 29.6858 42.2383 34.0837L42.215 74.8394L47.7721 74.8394L47.7662 34.0661L47.7837 32.5893Z" fill="#3EC1E6"/>
<path d="M48.3034 24.5865L48.2859 24.7324L48.3034 24.5865Z" fill="#3EC1E6"/>
<path d="M47.7955 32.1456L47.7838 32.5893L47.7955 32.1456Z" fill="#3EC1E6"/>
<path d="M47.8421 30.6513L47.8071 31.0949L47.8421 30.6513Z" fill="#3EC1E6"/>
<path d="M57.3743 21.6445C56.9599 20.5529 56.5104 19.508 56.0551 18.539C55.0962 18.9923 54.0814 19.3162 53.0372 19.5022C53.8227 24.3078 54.2286 29.1677 54.2514 34.037L54.2105 74.8569L59.7676 74.8569L59.7793 34.0661C59.737 29.8141 58.9221 25.6051 57.3743 21.6445Z" fill="#3EC1E6"/>
<path d="M48.9513 19.7123L48.9864 19.5139L48.9513 19.7123Z" fill="#3EC1E6"/>
<path d="M48.1458 26.0749L48.1166 26.3959L48.1458 26.0749Z" fill="#3EC1E6"/>
<path d="M47.9473 28.9001L47.9356 29.262L47.9473 28.9001Z" fill="#3EC1E6"/>
<path d="M48.0349 27.4116L47.9999 27.8903L48.0349 27.4116Z" fill="#3EC1E6"/>
<path d="M47.8072 31.095L47.7781 32.1632L47.8072 31.095Z" fill="#42CDF5"/>
<path d="M48.1166 26.396L48.0349 27.4117L48.1166 26.396Z" fill="#42CDF5"/>
<path d="M47.9123 29.2854C47.8812 29.7524 47.8578 30.2077 47.8423 30.6514C47.8578 30.2077 47.8812 29.7524 47.9123 29.2854Z" fill="#42CDF5"/>
<path d="M47.7838 32.5893L47.7663 34.0661L47.7838 32.5893Z" fill="#42CDF5"/>
<path d="M47.9999 27.8903L47.924 28.9235L47.9999 27.8903Z" fill="#42CDF5"/>
<path d="M48.6243 21.9188C48.7294 21.1482 48.8403 20.4186 48.9512 19.7123C48.7119 21.2124 48.4784 22.8469 48.2974 24.5922C48.3733 23.6407 48.5076 22.771 48.6243 21.9188Z" fill="#42CDF5"/>
<path d="M48.2799 24.7383L48.1282 26.0575L48.2799 24.7383Z" fill="#42CDF5"/>
<path d="M53.0139 19.4789C52.3103 19.6041 51.5978 19.6724 50.8833 19.6832C50.2498 19.6724 49.6179 19.6177 48.992 19.5197L48.957 19.7182C48.8461 20.4245 48.7118 21.1308 48.6301 21.9247C48.5484 22.7185 48.4024 23.67 48.2974 24.5923L48.2799 24.7382L48.1281 26.0574L48.0989 26.3785L48.0172 27.3942L47.9822 27.8728L47.9063 28.906L47.8946 29.2679C47.8751 29.7466 47.8576 30.2077 47.8421 30.6514L47.807 31.095L47.7779 32.1632L47.7662 32.6068L47.7487 34.0837L47.772 74.8394L54.2105 74.8569L54.2514 34.037C54.2221 29.1593 53.8084 24.2915 53.0139 19.4789Z" fill="#42CDF5"/>
<path d="M49.0329 19.2336L49.0913 18.8717L49.1847 18.2997L49.2372 18.002L49.3481 17.4124L49.3656 17.2898C49.4999 16.5835 49.6341 15.9239 49.7392 15.3285L49.7742 15.1417L49.8793 14.6514L49.926 14.4296L50.0311 13.9859L50.0719 13.7816L50.1653 13.3613L50.2062 13.1921L50.3054 12.7893L50.3521 12.7426L50.6498 11.546L50.6965 11.4993L50.7666 11.2307L50.7841 11.1432L50.8483 10.9272L50.8366 10.7754L50.9008 10.6062L50.9417 10.4602L50.9884 10.2968C48.9981 12.8648 47.3006 15.647 45.9275 18.5915C46.9015 19.0401 47.9327 19.3524 48.992 19.5197L49.0329 19.2336Z" fill="#3EC1E6"/>
<path d="M49.0329 19.2336L49.0913 18.8717L49.1847 18.2997L49.2372 18.002L49.3481 17.4124L49.3656 17.2898C49.4999 16.5835 49.6341 15.9239 49.7392 15.3285L49.7742 15.1417L49.8793 14.6514L49.926 14.4296L50.0311 13.9859L50.0719 13.7816L50.1653 13.3613L50.2062 13.1921L50.3054 12.7893L50.3521 12.7426L50.6498 11.546L50.6965 11.4993L50.7666 11.2307L50.7841 11.1432L50.8483 10.9272L50.8366 10.7754L50.9008 10.6062L50.9417 10.4602L50.9884 10.2968C48.9981 12.8648 47.3006 15.647 45.9275 18.5915C46.9015 19.0401 47.9327 19.3524 48.992 19.5197L49.0329 19.2336Z" fill="#068DB3"/>
<path d="M48.9922 19.5197C49.0021 19.4254 49.0177 19.3319 49.0389 19.2395L48.9922 19.5197Z" fill="#3EC1E6"/>
<g style="mix-blend-mode:multiply">
<path d="M48.9922 19.5197C49.0021 19.4254 49.0177 19.3319 49.0389 19.2395L48.9922 19.5197Z" fill="#34A3C2"/>
</g>
<path d="M49.3656 17.2898C49.4999 16.5835 49.6342 15.9239 49.7392 15.3285C49.6342 15.9239 49.4999 16.5835 49.3656 17.2898Z" fill="#3EC1E6"/>
<g style="mix-blend-mode:multiply">
<path d="M49.3656 17.2898C49.4999 16.5835 49.6342 15.9239 49.7392 15.3285C49.6342 15.9239 49.4999 16.5835 49.3656 17.2898Z" fill="#34A3C2"/>
</g>
<path d="M49.2374 18.002L49.3483 17.4125L49.2374 18.002Z" fill="#3EC1E6"/>
<g style="mix-blend-mode:multiply">
<path d="M49.2374 18.002L49.3483 17.4125L49.2374 18.002Z" fill="#34A3C2"/>
</g>
<path d="M49.0914 18.8718L49.1848 18.2997L49.0914 18.8718Z" fill="#3EC1E6"/>
<g style="mix-blend-mode:multiply">
<path d="M49.0914 18.8718L49.1848 18.2997L49.0914 18.8718Z" fill="#34A3C2"/>
</g>
<path d="M49.7976 15.1184L49.9027 14.6281L49.7976 15.1184Z" fill="#3EC1E6"/>
<g style="mix-blend-mode:multiply">
<path d="M49.7976 15.1184L49.9027 14.6281L49.7976 15.1184Z" fill="#34A3C2"/>
</g>
<path d="M49.9493 14.4062L50.0544 13.9626L49.9493 14.4062Z" fill="#3EC1E6"/>
<g style="mix-blend-mode:multiply">
<path d="M49.9493 14.4062L50.0544 13.9626L49.9493 14.4062Z" fill="#34A3C2"/>
</g>
<path d="M50.93 10.5771L50.9708 10.4311L50.93 10.5771Z" fill="#3EC1E6"/>
<g style="mix-blend-mode:multiply">
<path d="M50.93 10.5771L50.9708 10.4311L50.93 10.5771Z" fill="#34A3C2"/>
</g>
<path d="M56.0319 18.5158C54.6731 15.5716 52.9851 12.7909 51.0002 10.2269C51.8557 13.2679 52.5282 16.3574 53.0141 19.4789C54.0582 19.2929 55.073 18.969 56.0319 18.5158Z" fill="#3EC1E6"/>
<path d="M56.0319 18.5158C54.6731 15.5716 52.9851 12.7909 51.0002 10.2269C51.8557 13.2679 52.5282 16.3574 53.0141 19.4789C54.0582 19.2929 55.073 18.969 56.0319 18.5158Z" fill="#34A3C2"/>
<path d="M50.9942 10.221L50.9475 10.3844L50.9942 10.221Z" fill="#3EC1E6"/>
<g style="mix-blend-mode:multiply">
<path d="M50.9942 10.221L50.9475 10.3844L50.9942 10.221Z" fill="#34A3C2"/>
</g>
<path d="M50.8367 10.7754L50.9009 10.6062L50.8367 10.7754Z" fill="#3EC1E6"/>
<g style="mix-blend-mode:multiply">
<path d="M50.8367 10.7754L50.9009 10.6062L50.8367 10.7754Z" fill="#34A3C2"/>
</g>
<path d="M50.3464 12.6901L50.6441 11.4934L50.3464 12.6901Z" fill="#3EC1E6"/>
<g style="mix-blend-mode:multiply">
<path d="M50.3464 12.6901L50.6441 11.4934L50.3464 12.6901Z" fill="#34A3C2"/>
</g>
<path d="M50.2296 13.1687L50.3289 12.766L50.2296 13.1687Z" fill="#3EC1E6"/>
<g style="mix-blend-mode:multiply">
<path d="M50.2296 13.1687L50.3289 12.766L50.2296 13.1687Z" fill="#34A3C2"/>
</g>
<path d="M50.7551 11.0673L50.8193 10.8514L50.7551 11.0673Z" fill="#3EC1E6"/>
<g style="mix-blend-mode:multiply">
<path d="M50.7551 11.0673L50.8193 10.8514L50.7551 11.0673Z" fill="#34A3C2"/>
</g>
<path d="M50.0895 13.7524L50.1829 13.3321L50.0895 13.7524Z" fill="#3EC1E6"/>
<g style="mix-blend-mode:multiply">
<path d="M50.0895 13.7524L50.1829 13.3321L50.0895 13.7524Z" fill="#34A3C2"/>
</g>
<path d="M50.6673 11.4235L50.7374 11.1549L50.6673 11.4235Z" fill="#3EC1E6"/>
<g style="mix-blend-mode:multiply">
<path d="M50.6673 11.4235L50.7374 11.1549L50.6673 11.4235Z" fill="#34A3C2"/>
</g>
<path d="M49.1848 18.2997L49.2374 18.002L49.1848 18.2997Z" fill="#42CDF5"/>
<g style="mix-blend-mode:multiply">
<path d="M49.1848 18.2997L49.2374 18.002L49.1848 18.2997Z" fill="#34A3C2"/>
</g>
<path d="M50.8192 10.8513L50.8367 10.7754L50.8192 10.8513Z" fill="#42CDF5"/>
<g style="mix-blend-mode:multiply">
<path d="M50.8192 10.8513L50.8367 10.7754L50.8192 10.8513Z" fill="#34A3C2"/>
</g>
<path d="M50.7374 11.1549L50.7549 11.0673L50.7374 11.1549Z" fill="#42CDF5"/>
<g style="mix-blend-mode:multiply">
<path d="M50.7374 11.1549L50.7549 11.0673L50.7374 11.1549Z" fill="#34A3C2"/>
</g>
<path d="M49.0329 19.2337L49.0912 18.8718L49.0329 19.2337Z" fill="#42CDF5"/>
<g style="mix-blend-mode:multiply">
<path d="M49.0329 19.2337L49.0912 18.8718L49.0329 19.2337Z" fill="#34A3C2"/>
</g>
<path d="M49.3248 17.4358L49.3423 17.3133L49.3248 17.4358Z" fill="#42CDF5"/>
<g style="mix-blend-mode:multiply">
<path d="M49.3248 17.4358L49.3423 17.3133L49.3248 17.4358Z" fill="#34A3C2"/>
</g>
<path d="M49.7627 15.3053L49.7977 15.1185L49.7627 15.3053Z" fill="#42CDF5"/>
<g style="mix-blend-mode:multiply">
<path d="M49.7627 15.3053L49.7977 15.1185L49.7627 15.3053Z" fill="#34A3C2"/>
</g>
<path d="M50.1887 13.338L50.2296 13.1687L50.1887 13.338Z" fill="#42CDF5"/>
<g style="mix-blend-mode:multiply">
<path d="M50.1887 13.338L50.2296 13.1687L50.1887 13.338Z" fill="#34A3C2"/>
</g>
<path d="M49.9027 14.6281L49.9494 14.4063L49.9027 14.6281Z" fill="#42CDF5"/>
<g style="mix-blend-mode:multiply">
<path d="M49.9027 14.6281L49.9494 14.4063L49.9027 14.6281Z" fill="#34A3C2"/>
</g>
<path d="M50.0544 13.9626L50.0952 13.7583L50.0544 13.9626Z" fill="#42CDF5"/>
<g style="mix-blend-mode:multiply">
<path d="M50.0544 13.9626L50.0952 13.7583L50.0544 13.9626Z" fill="#34A3C2"/>
</g>
<path d="M50.9419 10.4019L50.9302 10.5771L50.8776 10.758L50.8601 10.8339L50.7959 11.0499L50.7784 11.1374L50.7084 11.4059L50.6617 11.4526L50.364 12.6493L50.3173 12.696L50.218 13.0987L50.1772 13.268L50.0838 13.6883L50.0429 13.8926L49.9378 14.3362L49.8911 14.5581L49.7861 15.0484L49.7511 15.2352C49.6226 15.8539 49.4884 16.5135 49.3775 17.1965L49.3249 17.4358L49.214 18.0254L49.1615 18.3231L49.0681 18.8951L49.0097 19.2571C48.9885 19.3494 48.9729 19.443 48.963 19.5372C49.5969 19.6324 50.2367 19.6832 50.8776 19.689C51.5922 19.6783 52.3047 19.61 53.0082 19.4847C52.5224 16.3632 51.8499 13.2737 50.9944 10.2327L50.9477 10.3961L50.9419 10.4019Z" fill="#42CDF5"/>
<path d="M50.9419 10.4019L50.9302 10.5771L50.8776 10.758L50.8601 10.8339L50.7959 11.0499L50.7784 11.1374L50.7084 11.4059L50.6617 11.4526L50.364 12.6493L50.3173 12.696L50.218 13.0987L50.1772 13.268L50.0838 13.6883L50.0429 13.8926L49.9378 14.3362L49.8911 14.5581L49.7861 15.0484L49.7511 15.2352C49.6226 15.8539 49.4884 16.5135 49.3775 17.1965L49.3249 17.4358L49.214 18.0254L49.1615 18.3231L49.0681 18.8951L49.0097 19.2571C48.9885 19.3494 48.9729 19.443 48.963 19.5372C49.5969 19.6324 50.2367 19.6832 50.8776 19.689C51.5922 19.6783 52.3047 19.61 53.0082 19.4847C52.5224 16.3632 51.8499 13.2737 50.9944 10.2327L50.9477 10.3961L50.9419 10.4019Z" fill="#079DC7"/>
<path d="M51.0001 50.2003C50.3699 50.2001 49.7539 50.0132 49.23 49.663C48.7061 49.3128 48.2978 48.8151 48.0567 48.2329C47.8156 47.6507 47.7526 47.01 47.8755 46.392C47.9985 45.7739 48.302 45.2062 48.7476 44.7606C49.1932 44.315 49.7609 44.0115 50.3789 43.8886C50.997 43.7656 51.6376 43.8286 52.2199 44.0697C52.8021 44.3108 53.2997 44.7192 53.6499 45.2431C54.0001 45.767 54.1871 46.383 54.1872 47.0131C54.1852 47.8578 53.8488 48.6673 53.2515 49.2646C52.6542 49.8618 51.8447 50.1983 51.0001 50.2003ZM51.0001 44.795C50.5625 44.795 50.1348 44.9247 49.7709 45.1678C49.4071 45.4109 49.1235 45.7564 48.9561 46.1607C48.7886 46.5649 48.7448 47.0098 48.8302 47.4389C48.9155 47.8681 49.1262 48.2623 49.4356 48.5717C49.7451 48.8811 50.1393 49.0918 50.5684 49.1772C50.9976 49.2626 51.4424 49.2188 51.8467 49.0513C52.251 48.8838 52.5965 48.6003 52.8396 48.2364C53.0827 47.8726 53.2124 47.4449 53.2124 47.0073C53.2102 46.4212 52.9764 45.8598 52.562 45.4454C52.1476 45.0309 51.5862 44.7972 51.0001 44.795Z" fill="#556566"/>
<path d="M53.4517 47.0131C53.4555 47.5045 53.313 47.986 53.0423 48.3961C52.7716 48.8063 52.385 49.1267 51.9317 49.3165C51.4784 49.5063 50.9789 49.5569 50.4968 49.462C50.0146 49.367 49.5716 49.1308 49.2241 48.7833C48.8766 48.4358 48.6403 47.9928 48.5454 47.5106C48.4504 47.0284 48.5011 46.5289 48.6909 46.0756C48.8807 45.6223 49.2011 45.2357 49.6112 44.9651C50.0214 44.6944 50.5028 44.5519 50.9942 44.5556C51.6445 44.5606 52.2666 44.8211 52.7264 45.2809C53.1862 45.7407 53.4467 46.3629 53.4517 47.0131Z" fill="#D5E5E6"/>
<path d="M52.4186 46.2135C52.4214 46.378 52.375 46.5395 52.2854 46.6774C52.1958 46.8153 52.067 46.9233 51.9156 46.9875C51.7642 47.0517 51.5971 47.0693 51.4356 47.0379C51.2742 47.0065 51.1258 46.9276 51.0095 46.8113C50.8932 46.695 50.8143 46.5466 50.7829 46.3852C50.7515 46.2237 50.769 46.0566 50.8333 45.9052C50.8975 45.7538 51.0055 45.625 51.1434 45.5354C51.2813 45.4457 51.4428 45.3994 51.6072 45.4021C51.8213 45.4058 52.0256 45.4924 52.177 45.6438C52.3283 45.7952 52.415 45.9995 52.4186 46.2135Z" fill="white"/>
<path d="M51 42.5302C50.368 42.5305 49.7501 42.3434 49.2245 41.9925C48.6988 41.6416 48.2891 41.1427 48.047 40.5588C47.805 39.975 47.7416 39.3325 47.8648 38.7126C47.988 38.0927 48.2923 37.5233 48.7392 37.0764C49.1861 36.6295 49.7555 36.3252 50.3754 36.202C50.9953 36.0788 51.6378 36.1422 52.2216 36.3842C52.8055 36.6263 53.3044 37.036 53.6553 37.5616C54.0062 38.0873 54.1933 38.7052 54.193 39.3372C54.1904 40.1832 53.8531 40.9938 53.2549 41.5921C52.6566 42.1903 51.846 42.5275 51 42.5302ZM51 37.1249C50.5624 37.1249 50.1347 37.2546 49.7709 37.4977C49.407 37.7408 49.1235 38.0863 48.956 38.4906C48.7885 38.8949 48.7447 39.3397 48.8301 39.7689C48.9155 40.198 49.1262 40.5922 49.4356 40.9016C49.745 41.2111 50.1392 41.4218 50.5684 41.5071C50.9975 41.5925 51.4424 41.5487 51.8466 41.3812C52.2509 41.2138 52.5964 40.9302 52.8395 40.5664C53.0826 40.2025 53.2123 39.7748 53.2123 39.3372C53.2101 38.7511 52.9764 38.1897 52.5619 37.7753C52.1475 37.3609 51.5861 37.1271 51 37.1249Z" fill="#556566"/>
<path d="M53.4517 39.3431C53.4555 39.8345 53.313 40.3159 53.0423 40.7261C52.7716 41.1363 52.385 41.4566 51.9317 41.6464C51.4784 41.8362 50.9789 41.8869 50.4968 41.7919C50.0146 41.697 49.5716 41.4607 49.2241 41.1132C48.8766 40.7657 48.6403 40.3227 48.5454 39.8406C48.4504 39.3584 48.5011 38.8589 48.6909 38.4056C48.8807 37.9523 49.2011 37.5657 49.6112 37.295C50.0214 37.0244 50.5028 36.8818 50.9942 36.8856C51.6445 36.8906 52.2666 37.1511 52.7264 37.6109C53.1862 38.0707 53.4467 38.6929 53.4517 39.3431Z" fill="#D5E5E6"/>
<path d="M52.4361 38.5258C52.4325 38.7398 52.3458 38.9441 52.1944 39.0955C52.0431 39.2469 51.8388 39.3335 51.6247 39.3371C51.5055 39.3595 51.3828 39.3553 51.2654 39.3248C51.148 39.2944 51.0388 39.2385 50.9454 39.161C50.8521 39.0835 50.777 38.9864 50.7254 38.8767C50.6738 38.7669 50.6471 38.6471 50.6471 38.5258C50.6471 38.4045 50.6738 38.2847 50.7254 38.1749C50.777 38.0651 50.8521 37.968 50.9454 37.8905C51.0388 37.8131 51.148 37.7571 51.2654 37.7267C51.3828 37.6962 51.5055 37.692 51.6247 37.7144C51.8388 37.718 52.0431 37.8047 52.1944 37.956C52.3458 38.1074 52.4325 38.3117 52.4361 38.5258Z" fill="white"/>
<path d="M51.0001 34.8717C50.3699 34.8715 49.7539 34.6845 49.23 34.3344C48.7061 33.9842 48.2978 33.4865 48.0567 32.9043C47.8156 32.3221 47.7526 31.6814 47.8755 31.0634C47.9985 30.4453 48.302 29.8776 48.7476 29.432C49.1932 28.9864 49.7609 28.6829 50.3789 28.56C50.997 28.437 51.6376 28.5 52.2199 28.7411C52.8021 28.9822 53.2997 29.3905 53.6499 29.9145C54.0001 30.4384 54.1871 31.0543 54.1872 31.6845C54.1873 32.1031 54.1049 32.5176 53.9448 32.9043C53.7847 33.291 53.5499 33.6424 53.2539 33.9384C52.958 34.2343 52.6066 34.4691 52.2199 34.6292C51.8331 34.7894 51.4187 34.8717 51.0001 34.8717ZM51.0001 29.478C50.5644 29.4785 50.1385 29.6081 49.7764 29.8505C49.4143 30.0929 49.1322 30.4371 48.9657 30.8398C48.7991 31.2424 48.7557 31.6854 48.8408 32.1127C48.9259 32.5401 49.1358 32.9326 49.4439 33.2407C49.752 33.5488 50.1445 33.7587 50.5719 33.8438C50.9992 33.9289 51.4422 33.8855 51.8448 33.7189C52.2475 33.5524 52.5918 33.2703 52.8341 32.9082C53.0765 32.5461 53.2061 32.1202 53.2066 31.6845C53.208 31.3944 53.1519 31.1068 53.0415 30.8385C52.9311 30.5701 52.7686 30.3263 52.5634 30.1212C52.3583 29.916 52.1145 29.7535 51.8461 29.6431C51.5778 29.5327 51.2902 29.4766 51.0001 29.478Z" fill="#556566"/>
<path d="M53.4517 31.6846C53.4566 32.1765 53.3149 32.6587 53.0447 33.0698C52.7745 33.4808 52.3879 33.8021 51.9344 33.9926C51.4809 34.1831 50.9809 34.2343 50.4982 34.1395C50.0155 34.0447 49.5719 33.8084 49.2241 33.4605C48.8762 33.1127 48.6399 32.6691 48.5451 32.1864C48.4503 31.7037 48.5015 31.2037 48.692 30.7502C48.8825 30.2967 49.2038 29.9101 49.6148 29.6399C50.0259 29.3697 50.5081 29.228 51 29.2329C51.6482 29.2394 52.2681 29.4998 52.7264 29.9582C53.1848 30.4165 53.4452 31.0364 53.4517 31.6846Z" fill="#D5E5E6"/>
<path d="M52.4302 30.8732C52.4266 31.0872 52.34 31.2915 52.1886 31.4429C52.0372 31.5943 51.8329 31.6809 51.6189 31.6845C51.4296 31.6491 51.2587 31.5485 51.1357 31.4004C51.0128 31.2522 50.9455 31.0657 50.9455 30.8732C50.9455 30.6806 51.0128 30.4941 51.1357 30.346C51.2587 30.1978 51.4296 30.0973 51.6189 30.0618C51.8329 30.0654 52.0372 30.1521 52.1886 30.3035C52.34 30.4548 52.4266 30.6591 52.4302 30.8732Z" fill="white"/>
<path d="M51 26.9097C50.368 26.91 49.7501 26.7229 49.2245 26.372C48.6988 26.0211 48.2891 25.5222 48.047 24.9383C47.805 24.3545 47.7416 23.712 47.8648 23.0921C47.988 22.4723 48.2923 21.9028 48.7392 21.4559C49.1861 21.009 49.7555 20.7047 50.3754 20.5815C50.9953 20.4583 51.6378 20.5217 52.2216 20.7638C52.8055 21.0058 53.3044 21.4155 53.6553 21.9412C54.0062 22.4668 54.1933 23.0847 54.193 23.7167C54.1925 24.5634 53.856 25.3753 53.2573 25.974C52.6586 26.5727 51.8467 26.9092 51 26.9097ZM50.9942 21.5102C50.5566 21.5102 50.1289 21.64 49.765 21.8831C49.4012 22.1262 49.1176 22.4717 48.9502 22.8759C48.7827 23.2802 48.7389 23.725 48.8243 24.1542C48.9096 24.5834 49.1203 24.9776 49.4297 25.287C49.7391 25.5964 50.1334 25.8071 50.5625 25.8925C50.9917 25.9778 51.4365 25.934 51.8408 25.7666C52.2451 25.5991 52.5906 25.3155 52.8337 24.9517C53.0768 24.5879 53.2065 24.1601 53.2065 23.7226C53.2065 23.1358 52.9734 22.5731 52.5585 22.1582C52.1436 21.7433 51.5809 21.5103 50.9942 21.5102Z" fill="#556566"/>
<path d="M53.4576 23.7167C53.4613 24.2082 53.3188 24.6896 53.0482 25.0998C52.7775 25.5099 52.3909 25.8303 51.9376 26.0201C51.4843 26.2099 50.9848 26.2605 50.5026 26.1656C50.0205 26.0706 49.5774 25.8344 49.2299 25.4869C48.8824 25.1394 48.6462 24.6964 48.5512 24.2142C48.4563 23.732 48.5069 23.2325 48.6967 22.7792C48.8865 22.3259 49.2069 21.9393 49.6171 21.6687C50.0273 21.398 50.5087 21.2555 51.0001 21.2593C51.6503 21.2642 52.2725 21.5248 52.7323 21.9845C53.1921 22.4443 53.4526 23.0665 53.4576 23.7167Z" fill="#D5E5E6"/>
<path d="M52.4477 22.8937C52.4163 23.0866 52.3175 23.2621 52.1688 23.3889C52.0202 23.5158 51.8313 23.5858 51.6359 23.5865C51.4404 23.5872 51.2511 23.5185 51.1015 23.3927C50.952 23.2669 50.8519 23.0922 50.8191 22.8995C50.8213 22.6834 50.9081 22.4768 51.0609 22.324C51.2137 22.1712 51.4203 22.0844 51.6363 22.0823C51.8504 22.0859 52.0547 22.1726 52.206 22.324C52.3574 22.4753 52.4441 22.6796 52.4477 22.8937Z" fill="white"/>
<path d="M52.1326 80.589C52.1326 81.9199 52.4011 83.0057 51.0527 83.0115C49.7218 83.0115 49.9845 81.9433 49.9786 80.5832L48.636 55.0744C48.6366 54.4336 48.8914 53.8193 49.3445 53.3662C49.7976 52.9131 50.4119 52.6583 51.0527 52.6578C51.6934 52.6583 52.3078 52.9131 52.7609 53.3662C53.2139 53.8193 53.4687 54.4336 53.4693 55.0744L52.1326 80.589Z" fill="#A5B5B6"/>
<path d="M51.9165 82.2761C51.9169 82.3957 51.8935 82.5143 51.8479 82.6249C51.8022 82.7356 51.7352 82.8361 51.6506 82.9207C51.5659 83.0053 51.4654 83.0724 51.3548 83.118C51.2441 83.1637 51.1256 83.187 51.0059 83.1867C50.8862 83.187 50.7677 83.1637 50.657 83.118C50.5464 83.0724 50.4459 83.0053 50.3613 82.9207C50.2766 82.8361 50.2096 82.7356 50.1639 82.6249C50.1183 82.5143 50.095 82.3957 50.0953 82.2761L50.0895 53.5392C50.0916 53.2968 50.1888 53.065 50.3602 52.8936C50.5316 52.7222 50.7635 52.6249 51.0059 52.6228C51.1256 52.6225 51.2442 52.6458 51.3548 52.6914C51.4654 52.7371 51.5659 52.8041 51.6506 52.8888C51.7352 52.9734 51.8022 53.0739 51.8479 53.1845C51.8935 53.2952 51.9169 53.4137 51.9165 53.5334L51.9165 82.2761Z" fill="#C5D5D6"/>
</g>
<defs>
<clipPath id="clip0_9_45">
<rect width="71.9062" height="71.9062" fill="white" transform="matrix(0.704948 -0.709259 0.704948 0.709259 0.312988 51)"/>
</clipPath>
</defs>
</svg>
